# xmcd
#
# Track frame offsets:
#	150
#	12680
#	26341
#	38743
#	56095
#	72204
#	84338
#	95399
#	104943
#	125373
#	140387
#	154158
#	163419
#	178174
#	192189
#
# Disc length: 2739 seconds
#
# Revision: 0
# Processed by: cddbd v1.5.1PL0 Copyright (c) Steve Scherf et al.
# Submitted via: audiograbber 1.83.01
#
DISCID=d10ab10f
DTITLE=Cash, Johnny - CB9074
DYEAR=1900
DGENRE=Country
TTITLE0=Folsom Prison Blues
TTITLE1=Man In Black
TTITLE2=I Walk The Line
TTITLE3=Sunday Morning Coming Down
TTITLE4=Boy Named Sue, A
TTITLE5=Ring Of Fire
TTITLE6=Ballad Of A Teenage Queen
TTITLE7=Guess Things Happen That Way
TTITLE8=One Piece At A Time
TTITLE9=Don't Take Your Guns To Town
TTITLE10=Understand Your Man
TTITLE11=Five Feet High and Rising
TTITLE12=Orange Blossom Special
TTITLE13=One On The Right Is On The Left
TTITLE14=Flesh and Blood
EXTD=Karaoke
EXTT0=
EXTT1=
EXTT2=
EXTT3=
EXTT4=
EXTT5=
EXTT6=
EXTT7=
EXTT8=
EXTT9=
EXTT10=
EXTT11=
EXTT12=
EXTT13=
EXTT14=
PLAYORDER=
